<mxfile host="app.diagrams.net" modified="2023-05-30T19:05:17.541Z" agent="Mozilla/5.0 (X11; Linux x86_64) AppleWebKit/537.36 (KHTML, like Gecko) Chrome/112.0.0.0 Safari/537.36" etag="0a1VY5ZhHjW_I7ESdiSw" version="21.3.5" type="github">
  <diagram name="Page-1" id="W8NE1EDhPZZKBVcKvTwS">
    <mxGraphModel dx="1855" dy="1053" grid="1" gridSize="10" guides="1" tooltips="1" connect="1" arrows="1" fold="1" page="1" pageScale="1" pageWidth="1100" pageHeight="1700" math="0" shadow="0">
      <root>
        <mxCell id="0" />
        <mxCell id="1" parent="0" />
        <mxCell id="2-jA_CnRBcSGuPvDdhM2-1" value="" style="shape=image;imageAspect=0;aspect=fixed;verticalLabelPosition=bottom;verticalAlign=top;image=data:image/svg+xml,PHN2ZyB4bWxucz0iaHR0cDovL3d3dy53My5vcmcvMjAwMC9zdmciIHhtbG5zOnhsaW5rPSJodHRwOi8vd3d3LnczLm9yZy8xOTk5L3hsaW5rIiBhcmlhLWxhYmVsbGVkYnk9Ik1hdGhKYXgtU1ZHLTEtVGl0bGUiIHJvbGU9ImltZyIgdmlld0JveD0iMCAtNzkxLjMgMjUyNy40IDEwMDguNiIgc3R5bGU9InZlcnRpY2FsLWFsaWduOiAtMC41MDVleDsiIGhlaWdodD0iMi4zNDNleCIgd2lkdGg9IjUuODdleCI+JiN4YTs8dGl0bGUgaWQ9Ik1hdGhKYXgtU1ZHLTEtVGl0bGUiPntcZGlzcGxheXN0eWxlIGErYml9PC90aXRsZT4mI3hhOzxkZWZzIGFyaWEtaGlkZGVuPSJ0cnVlIj4mI3hhOzxwYXRoIGQ9Ik0zMyAxNTdRMzMgMjU4IDEwOSAzNDlUMjgwIDQ0MVEzMzEgNDQxIDM3MCAzOTJRMzg2IDQyMiA0MTYgNDIyUTQyOSA0MjIgNDM5IDQxNFQ0NDkgMzk0UTQ0OSAzODEgNDEyIDIzNFQzNzQgNjhRMzc0IDQzIDM4MSAzNVQ0MDIgMjZRNDExIDI3IDQyMiAzNVE0NDMgNTUgNDYzIDEzMVE0NjkgMTUxIDQ3MyAxNTJRNDc1IDE1MyA0ODMgMTUzSDQ4N1E1MDYgMTUzIDUwNiAxNDRRNTA2IDEzOCA1MDEgMTE3VDQ4MSA2M1Q0NDkgMTNRNDM2IDAgNDE3IC04UTQwOSAtMTAgMzkzIC0xMFEzNTkgLTEwIDMzNiA1VDMwNiAzNkwzMDAgNTFRMjk5IDUyIDI5NiA1MFEyOTQgNDggMjkyIDQ2UTIzMyAtMTAgMTcyIC0xMFExMTcgLTEwIDc1IDMwVDMzIDE1N1pNMzUxIDMyOFEzNTEgMzM0IDM0NiAzNTBUMzIzIDM4NVQyNzcgNDA1UTI0MiA0MDUgMjEwIDM3NFQxNjAgMjkzUTEzMSAyMTQgMTE5IDEyOVExMTkgMTI2IDExOSAxMThUMTE4IDEwNlExMTggNjEgMTM2IDQ0VDE3OSAyNlEyMTcgMjYgMjU0IDU5VDI5OCAxMTBRMzAwIDExNCAzMjUgMjE3VDM1MSAzMjhaIiBpZD0iRTEtTUpNQVRISS02MSIgc3Ryb2tlLXdpZHRoPSIxIi8+JiN4YTs8cGF0aCBkPSJNNTYgMjM3VDU2IDI1MFQ3MCAyNzBIMzY5VjQyMEwzNzAgNTcwUTM4MCA1ODMgMzg5IDU4M1E0MDIgNTgzIDQwOSA1NjhWMjcwSDcwN1E3MjIgMjYyIDcyMiAyNTBUNzA3IDIzMEg0MDlWLTY4UTQwMSAtODIgMzkxIC04MkgzODlIMzg3UTM3NSAtODIgMzY5IC02OFYyMzBINzBRNTYgMjM3IDU2IDI1MFoiIGlkPSJFMS1NSk1BSU4tMkIiIHN0cm9rZS13aWR0aD0iMSIvPiYjeGE7PHBhdGggZD0iTTczIDY0N1E3MyA2NTcgNzcgNjcwVDg5IDY4M1E5MCA2ODMgMTYxIDY4OFQyMzQgNjk0UTI0NiA2OTQgMjQ2IDY4NVQyMTIgNTQyUTIwNCA1MDggMTk1IDQ3MlQxODAgNDE4TDE3NiAzOTlRMTc2IDM5NiAxODIgNDAyUTIzMSA0NDIgMjgzIDQ0MlEzNDUgNDQyIDM4MyAzOTZUNDIyIDI4MFE0MjIgMTY5IDM0MyA3OVQxNzMgLTExUTEyMyAtMTEgODIgMjdUNDAgMTUwVjE1OVE0MCAxODAgNDggMjE3VDk3IDQxNFExNDcgNjExIDE0NyA2MjNUMTA5IDYzN1ExMDQgNjM3IDEwMSA2MzdIOTZRODYgNjM3IDgzIDYzN1Q3NiA2NDBUNzMgNjQ3Wk0zMzYgMzI1VjMzMVEzMzYgNDA1IDI3NSA0MDVRMjU4IDQwNSAyNDAgMzk3VDIwNyAzNzZUMTgxIDM1MlQxNjMgMzMwTDE1NyAzMjJMMTM2IDIzNlExMTQgMTUwIDExNCAxMTRRMTE0IDY2IDEzOCA0MlExNTQgMjYgMTc4IDI2UTIxMSAyNiAyNDUgNThRMjcwIDgxIDI4NSAxMTRUMzE4IDIxOVEzMzYgMjkxIDMzNiAzMjVaIiBpZD0iRTEtTUpNQVRISS02MiIgc3Ryb2tlLXdpZHRoPSIxIi8+JiN4YTs8cGF0aCBkPSJNMTg0IDYwMFExODQgNjI0IDIwMyA2NDJUMjQ3IDY2MVEyNjUgNjYxIDI3NyA2NDlUMjkwIDYxOVEyOTAgNTk2IDI3MCA1NzdUMjI2IDU1N1EyMTEgNTU3IDE5OCA1NjdUMTg0IDYwMFpNMjEgMjg3UTIxIDI5NSAzMCAzMThUNTQgMzY5VDk4IDQyMFQxNTggNDQyUTE5NyA0NDIgMjIzIDQxOVQyNTAgMzU3UTI1MCAzNDAgMjM2IDMwMVQxOTYgMTk2VDE1NCA4M1ExNDkgNjEgMTQ5IDUxUTE0OSAyNiAxNjYgMjZRMTc1IDI2IDE4NSAyOVQyMDggNDNUMjM1IDc4VDI2MCAxMzdRMjYzIDE0OSAyNjUgMTUxVDI4MiAxNTNRMzAyIDE1MyAzMDIgMTQzUTMwMiAxMzUgMjkzIDExMlQyNjggNjFUMjIzIDExVDE2MSAtMTFRMTI5IC0xMSAxMDIgMTBUNzQgNzRRNzQgOTEgNzkgMTA2VDEyMiAyMjBRMTYwIDMyMSAxNjYgMzQxVDE3MyAzODBRMTczIDQwNCAxNTYgNDA0SDE1NFExMjQgNDA0IDk5IDM3MVQ2MSAyODdRNjAgMjg2IDU5IDI4NFQ1OCAyODFUNTYgMjc5VDUzIDI3OFQ0OSAyNzhUNDEgMjc4SDI3UTIxIDI4NCAyMSAyODdaIiBpZD0iRTEtTUpNQVRISS02OSIgc3Ryb2tlLXdpZHRoPSIxIi8+JiN4YTs8L2RlZnM+JiN4YTs8ZyBhcmlhLWhpZGRlbj0idHJ1ZSIgdHJhbnNmb3JtPSJtYXRyaXgoMSAwIDAgLTEgMCAwKSIgc3Ryb2tlLXdpZHRoPSIwIiBmaWxsPSJjdXJyZW50Q29sb3IiIHN0cm9rZT0iY3VycmVudENvbG9yIj4mI3hhOyA8dXNlIHk9IjAiIHg9IjAiIHhsaW5rOmhyZWY9IiNFMS1NSk1BVEhJLTYxIi8+JiN4YTsgPHVzZSB5PSIwIiB4PSI3NTEiIHhsaW5rOmhyZWY9IiNFMS1NSk1BSU4tMkIiLz4mI3hhOyA8dXNlIHk9IjAiIHg9IjE3NTIiIHhsaW5rOmhyZWY9IiNFMS1NSk1BVEhJLTYyIi8+JiN4YTsgPHVzZSB5PSIwIiB4PSIyMTgxIiB4bGluazpocmVmPSIjRTEtTUpNQVRISS02OSIvPiYjeGE7PC9nPiYjeGE7PC9zdmc+;imageBackground=#FFFFFF;" vertex="1" parent="1">
          <mxGeometry x="480" y="80" width="70" height="27.67" as="geometry" />
        </mxCell>
        <mxCell id="2-jA_CnRBcSGuPvDdhM2-2" value="&lt;span style=&quot;font-size: 40px;&quot;&gt;Screen&lt;/span&gt;" style="rounded=0;whiteSpace=wrap;html=1;" vertex="1" parent="1">
          <mxGeometry x="280" y="120" width="560" height="320" as="geometry" />
        </mxCell>
        <mxCell id="2-jA_CnRBcSGuPvDdhM2-3" value="" style="endArrow=none;html=1;rounded=0;" edge="1" parent="1">
          <mxGeometry width="50" height="50" relative="1" as="geometry">
            <mxPoint x="560" y="480" as="sourcePoint" />
            <mxPoint x="560" y="80" as="targetPoint" />
          </mxGeometry>
        </mxCell>
        <mxCell id="2-jA_CnRBcSGuPvDdhM2-4" value="&lt;font color=&quot;#000000&quot;&gt;x&lt;/font&gt;" style="text;html=1;strokeColor=none;fillColor=#ffffff;align=center;verticalAlign=middle;whiteSpace=wrap;rounded=0;" vertex="1" parent="1">
          <mxGeometry x="850" y="240" width="60" height="30" as="geometry" />
        </mxCell>
        <mxCell id="2-jA_CnRBcSGuPvDdhM2-5" value="" style="endArrow=none;html=1;rounded=0;" edge="1" parent="1">
          <mxGeometry width="50" height="50" relative="1" as="geometry">
            <mxPoint x="240" y="280" as="sourcePoint" />
            <mxPoint x="880" y="280" as="targetPoint" />
          </mxGeometry>
        </mxCell>
        <mxCell id="2-jA_CnRBcSGuPvDdhM2-6" value="&lt;font color=&quot;#000000&quot;&gt;- x&lt;/font&gt;" style="text;html=1;strokeColor=none;fillColor=#ffffff;align=center;verticalAlign=middle;whiteSpace=wrap;rounded=0;" vertex="1" parent="1">
          <mxGeometry x="210" y="290" width="60" height="30" as="geometry" />
        </mxCell>
        <mxCell id="2-jA_CnRBcSGuPvDdhM2-7" value="" style="shape=image;imageAspect=0;aspect=fixed;verticalLabelPosition=bottom;verticalAlign=top;image=data:image/svg+xml,PHN2ZyB4bWxucz0iaHR0cDovL3d3dy53My5vcmcvMjAwMC9zdmciIHhtbG5zOnhsaW5rPSJodHRwOi8vd3d3LnczLm9yZy8xOTk5L3hsaW5rIiBhcmlhLWxhYmVsbGVkYnk9Ik1hdGhKYXgtU1ZHLTEtVGl0bGUiIHJvbGU9ImltZyIgdmlld0JveD0iMCAtNzkxLjMgMjUyNy40IDEwMDguNiIgc3R5bGU9InZlcnRpY2FsLWFsaWduOiAtMC41MDVleDsiIGhlaWdodD0iMi4zNDNleCIgd2lkdGg9IjUuODdleCI+JiN4YTs8dGl0bGUgaWQ9Ik1hdGhKYXgtU1ZHLTEtVGl0bGUiPntcZGlzcGxheXN0eWxlIGErYml9PC90aXRsZT4mI3hhOzxkZWZzIGFyaWEtaGlkZGVuPSJ0cnVlIj4mI3hhOzxwYXRoIGQ9Ik0zMyAxNTdRMzMgMjU4IDEwOSAzNDlUMjgwIDQ0MVEzMzEgNDQxIDM3MCAzOTJRMzg2IDQyMiA0MTYgNDIyUTQyOSA0MjIgNDM5IDQxNFQ0NDkgMzk0UTQ0OSAzODEgNDEyIDIzNFQzNzQgNjhRMzc0IDQzIDM4MSAzNVQ0MDIgMjZRNDExIDI3IDQyMiAzNVE0NDMgNTUgNDYzIDEzMVE0NjkgMTUxIDQ3MyAxNTJRNDc1IDE1MyA0ODMgMTUzSDQ4N1E1MDYgMTUzIDUwNiAxNDRRNTA2IDEzOCA1MDEgMTE3VDQ4MSA2M1Q0NDkgMTNRNDM2IDAgNDE3IC04UTQwOSAtMTAgMzkzIC0xMFEzNTkgLTEwIDMzNiA1VDMwNiAzNkwzMDAgNTFRMjk5IDUyIDI5NiA1MFEyOTQgNDggMjkyIDQ2UTIzMyAtMTAgMTcyIC0xMFExMTcgLTEwIDc1IDMwVDMzIDE1N1pNMzUxIDMyOFEzNTEgMzM0IDM0NiAzNTBUMzIzIDM4NVQyNzcgNDA1UTI0MiA0MDUgMjEwIDM3NFQxNjAgMjkzUTEzMSAyMTQgMTE5IDEyOVExMTkgMTI2IDExOSAxMThUMTE4IDEwNlExMTggNjEgMTM2IDQ0VDE3OSAyNlEyMTcgMjYgMjU0IDU5VDI5OCAxMTBRMzAwIDExNCAzMjUgMjE3VDM1MSAzMjhaIiBpZD0iRTEtTUpNQVRISS02MSIgc3Ryb2tlLXdpZHRoPSIxIi8+JiN4YTs8cGF0aCBkPSJNNTYgMjM3VDU2IDI1MFQ3MCAyNzBIMzY5VjQyMEwzNzAgNTcwUTM4MCA1ODMgMzg5IDU4M1E0MDIgNTgzIDQwOSA1NjhWMjcwSDcwN1E3MjIgMjYyIDcyMiAyNTBUNzA3IDIzMEg0MDlWLTY4UTQwMSAtODIgMzkxIC04MkgzODlIMzg3UTM3NSAtODIgMzY5IC02OFYyMzBINzBRNTYgMjM3IDU2IDI1MFoiIGlkPSJFMS1NSk1BSU4tMkIiIHN0cm9rZS13aWR0aD0iMSIvPiYjeGE7PHBhdGggZD0iTTczIDY0N1E3MyA2NTcgNzcgNjcwVDg5IDY4M1E5MCA2ODMgMTYxIDY4OFQyMzQgNjk0UTI0NiA2OTQgMjQ2IDY4NVQyMTIgNTQyUTIwNCA1MDggMTk1IDQ3MlQxODAgNDE4TDE3NiAzOTlRMTc2IDM5NiAxODIgNDAyUTIzMSA0NDIgMjgzIDQ0MlEzNDUgNDQyIDM4MyAzOTZUNDIyIDI4MFE0MjIgMTY5IDM0MyA3OVQxNzMgLTExUTEyMyAtMTEgODIgMjdUNDAgMTUwVjE1OVE0MCAxODAgNDggMjE3VDk3IDQxNFExNDcgNjExIDE0NyA2MjNUMTA5IDYzN1ExMDQgNjM3IDEwMSA2MzdIOTZRODYgNjM3IDgzIDYzN1Q3NiA2NDBUNzMgNjQ3Wk0zMzYgMzI1VjMzMVEzMzYgNDA1IDI3NSA0MDVRMjU4IDQwNSAyNDAgMzk3VDIwNyAzNzZUMTgxIDM1MlQxNjMgMzMwTDE1NyAzMjJMMTM2IDIzNlExMTQgMTUwIDExNCAxMTRRMTE0IDY2IDEzOCA0MlExNTQgMjYgMTc4IDI2UTIxMSAyNiAyNDUgNThRMjcwIDgxIDI4NSAxMTRUMzE4IDIxOVEzMzYgMjkxIDMzNiAzMjVaIiBpZD0iRTEtTUpNQVRISS02MiIgc3Ryb2tlLXdpZHRoPSIxIi8+JiN4YTs8cGF0aCBkPSJNMTg0IDYwMFExODQgNjI0IDIwMyA2NDJUMjQ3IDY2MVEyNjUgNjYxIDI3NyA2NDlUMjkwIDYxOVEyOTAgNTk2IDI3MCA1NzdUMjI2IDU1N1EyMTEgNTU3IDE5OCA1NjdUMTg0IDYwMFpNMjEgMjg3UTIxIDI5NSAzMCAzMThUNTQgMzY5VDk4IDQyMFQxNTggNDQyUTE5NyA0NDIgMjIzIDQxOVQyNTAgMzU3UTI1MCAzNDAgMjM2IDMwMVQxOTYgMTk2VDE1NCA4M1ExNDkgNjEgMTQ5IDUxUTE0OSAyNiAxNjYgMjZRMTc1IDI2IDE4NSAyOVQyMDggNDNUMjM1IDc4VDI2MCAxMzdRMjYzIDE0OSAyNjUgMTUxVDI4MiAxNTNRMzAyIDE1MyAzMDIgMTQzUTMwMiAxMzUgMjkzIDExMlQyNjggNjFUMjIzIDExVDE2MSAtMTFRMTI5IC0xMSAxMDIgMTBUNzQgNzRRNzQgOTEgNzkgMTA2VDEyMiAyMjBRMTYwIDMyMSAxNjYgMzQxVDE3MyAzODBRMTczIDQwNCAxNTYgNDA0SDE1NFExMjQgNDA0IDk5IDM3MVQ2MSAyODdRNjAgMjg2IDU5IDI4NFQ1OCAyODFUNTYgMjc5VDUzIDI3OFQ0OSAyNzhUNDEgMjc4SDI3UTIxIDI4NCAyMSAyODdaIiBpZD0iRTEtTUpNQVRISS02OSIgc3Ryb2tlLXdpZHRoPSIxIi8+JiN4YTs8L2RlZnM+JiN4YTs8ZyBhcmlhLWhpZGRlbj0idHJ1ZSIgdHJhbnNmb3JtPSJtYXRyaXgoMSAwIDAgLTEgMCAwKSIgc3Ryb2tlLXdpZHRoPSIwIiBmaWxsPSJjdXJyZW50Q29sb3IiIHN0cm9rZT0iY3VycmVudENvbG9yIj4mI3hhOyA8dXNlIHk9IjAiIHg9IjAiIHhsaW5rOmhyZWY9IiNFMS1NSk1BVEhJLTYxIi8+JiN4YTsgPHVzZSB5PSIwIiB4PSI3NTEiIHhsaW5rOmhyZWY9IiNFMS1NSk1BSU4tMkIiLz4mI3hhOyA8dXNlIHk9IjAiIHg9IjE3NTIiIHhsaW5rOmhyZWY9IiNFMS1NSk1BVEhJLTYyIi8+JiN4YTsgPHVzZSB5PSIwIiB4PSIyMTgxIiB4bGluazpocmVmPSIjRTEtTUpNQVRISS02OSIvPiYjeGE7PC9nPiYjeGE7PC9zdmc+;imageBackground=#FFFFFF;" vertex="1" parent="1">
          <mxGeometry x="590" y="450" width="75.89" height="30" as="geometry" />
        </mxCell>
        <mxCell id="2-jA_CnRBcSGuPvDdhM2-8" value="&lt;font color=&quot;#000000&quot;&gt;-&lt;/font&gt;" style="text;html=1;strokeColor=none;fillColor=#FFFFFF;align=center;verticalAlign=middle;whiteSpace=wrap;rounded=0;" vertex="1" parent="1">
          <mxGeometry x="580" y="450" width="10" height="30" as="geometry" />
        </mxCell>
        <mxCell id="2-jA_CnRBcSGuPvDdhM2-9" value="" style="ellipse;whiteSpace=wrap;html=1;aspect=fixed;" vertex="1" parent="1">
          <mxGeometry x="290" y="410" width="20" height="20" as="geometry" />
        </mxCell>
        <mxCell id="2-jA_CnRBcSGuPvDdhM2-10" value="px" style="text;html=1;strokeColor=none;fillColor=none;align=center;verticalAlign=middle;whiteSpace=wrap;rounded=0;" vertex="1" parent="1">
          <mxGeometry x="280" y="405" width="40" height="30" as="geometry" />
        </mxCell>
      </root>
    </mxGraphModel>
  </diagram>
</mxfile>
